<svg width="17" height="29" viewBox="0 0 17 29" fill="none" xmlns="http://www.w3.org/2000/svg">
<path d="M0.823099 10.5885C0.579189 9.85884 0.362381 9.11514 0.186225 8.35741C-0.138988 6.87002 -0.0983361 5.3265 0.795998 4.04958C1.43287 3.1375 2.3001 2.67445 3.24864 2.18333C4.33268 1.63609 5.45737 1.11689 6.66337 0.892381C7.67966 0.695933 8.7637 0.723999 9.73933 1.10286C11.3518 1.70624 12.2326 3.72685 12.9237 5.21424C14.0348 7.57162 14.8885 10.0413 15.5796 12.553C16.2842 15.1208 17.2328 17.9132 16.9482 20.6214C16.6907 22.9788 15.5796 24.9994 13.8993 26.585C12.463 27.9321 10.1187 29.7703 8.27588 28.0584C6.31106 26.2482 5.60643 23.512 4.67144 21.0704C3.84486 18.9095 3.04538 16.7345 2.273 14.5455C1.81229 13.2406 1.27027 11.9215 0.823099 10.5745V10.5885Z" fill="black"/>
</svg>
