<svg width="21" height="34" viewBox="0 0 21 34" fill="none" xmlns="http://www.w3.org/2000/svg">
<path id="Vector" d="M0.00079534 7.52649C0.00079534 7.52649 0.00079534 7.45561 0.00079534 7.42726C-0.0133718 5.92465 0.156636 4.36534 0.921664 3.08954C1.9842 1.31759 4.02428 0.33948 6.06436 0.0843194C8.10443 -0.170841 10.1728 0.197724 12.1846 0.59464C14.7063 1.09078 18.4323 1.64363 19.7498 4.16688C21.1524 6.86024 21.0674 10.0923 20.9257 12.9841C20.7699 16.3012 21.0391 19.5332 20.9257 22.8503C20.8407 25.2176 20.2882 27.6983 18.8715 29.6404C17.3556 31.71 14.7347 32.7165 12.3546 33.4253C8.98279 34.4317 5.07265 34.134 3.00424 30.9445C1.74336 29.0167 1.40335 26.621 1.31834 24.3245C1.21917 21.5461 1.00667 18.7677 0.864994 15.9893C0.723322 13.2109 0.0574641 10.3758 0.00079534 7.54067V7.52649Z" fill="black"/>
</svg>
