<svg width="21" height="32" viewBox="0 0 21 32" fill="none" xmlns="http://www.w3.org/2000/svg">
<path id="Vector" d="M9.00833 1.04801C8.0691 1.28295 7.17131 1.66992 6.3702 2.23656C4.31219 3.68769 3.17961 6.06479 2.62712 8.46952C1.70171 12.5189 1.31498 16.665 1.03873 20.7973C0.886799 23.05 0.472418 25.3994 1.25971 27.583C2.73761 31.6462 7.54424 32.6966 11.1907 30.9828C17.6133 27.97 19.4365 20.2859 20.1547 13.8733C20.3205 12.3254 20.431 10.7637 20.4586 9.202C20.4862 7.91671 20.5415 6.6867 20.0166 5.48433C19.105 3.42511 17.0332 2.05689 14.9476 1.3797C13.0691 0.743961 10.9558 0.564297 9.00833 1.04801Z" fill="black"/>
</svg>
