<svg width="19" height="36" viewBox="0 0 19 36" fill="none" xmlns="http://www.w3.org/2000/svg">
<path d="M4.05349 2.01505C2.30322 2.92518 1.00774 4.41449 0.621848 6.49676C-0.632286 13.1848 0.33243 20.2728 0.732099 27.0161C0.801007 28.2709 0.883701 29.5534 1.24203 30.7669C1.97245 33.1663 4.10861 34.7659 6.54797 35.1107C8.29825 35.3589 10.1036 35.0142 11.7575 34.3798C13.2459 33.8007 14.6516 33.0008 15.8093 31.8839C18.9653 28.8225 19.0755 23.8444 18.9791 19.735C18.9101 16.522 18.8137 13.2952 18.7586 10.0821C18.7172 7.57236 18.4829 4.70407 16.5397 2.88381C13.9212 0.415431 9.40078 0.456801 6.10696 1.2704C5.37653 1.44967 4.68745 1.71168 4.05349 2.04264V2.01505Z" fill="black"/>
</svg>
