<svg width="29" height="32" viewBox="0 0 29 32" fill="none" xmlns="http://www.w3.org/2000/svg">
<path id="Vector" d="M27.6809 2.46937C27.0047 1.61695 25.9365 1.08926 24.6789 0.926896C21.6769 0.534512 18.5397 0.886301 15.727 2.02286C14.3071 2.59114 12.9819 3.37592 11.8325 4.37717C9.12802 6.73147 6.80216 9.49168 4.63857 12.3466C2.67781 14.9309 0.0273952 17.7859 0.000350264 21.2091C-0.0266947 24.2128 1.51488 26.5807 3.77313 28.3938C5.89616 30.0986 8.78996 31.7087 11.6026 31.1404C13.0631 30.8428 14.3477 29.9498 15.3484 28.8403C16.9034 27.149 18.0664 24.9841 19.2293 23.0086C20.4734 20.8979 21.6093 18.733 22.7316 16.5546C24.3543 13.3885 25.9094 10.2088 27.6133 7.08327C28.4381 5.56785 28.8573 3.94419 27.6809 2.45584V2.46937Z" fill="black"/>
</svg>
