<svg width="28" height="24" viewBox="0 0 28 24" fill="none" xmlns="http://www.w3.org/2000/svg">
<path id="Vector" d="M14.3333 0C14.7382 4.17875e-05 15.1335 0.122952 15.467 0.35248C15.8005 0.582009 16.0565 0.907349 16.2011 1.28549C16.3458 1.66363 16.3722 2.07676 16.2771 2.47026C16.1819 2.86377 15.9695 3.21912 15.668 3.48933L15.6667 5.33333H20.6667C21.6869 5.33328 22.6687 5.7231 23.411 6.42304C24.1533 7.12299 24.6001 8.08014 24.66 9.09867L24.6667 9.33333V20C24.6667 21.0203 24.2769 22.002 23.577 22.7443C22.877 23.4867 21.9199 23.9335 20.9013 23.9933L20.6667 24H7.33333C6.31305 24.0001 5.33131 23.6102 4.58899 22.9103C3.84666 22.2103 3.39986 21.2532 3.34 20.2347L3.33333 20V9.33333C3.33328 8.31305 3.7231 7.33131 4.42305 6.58899C5.12299 5.84666 6.08014 5.39986 7.09867 5.34L7.33333 5.33333H13V3.49067C12.6981 3.22063 12.4853 2.8653 12.3898 2.47168C12.2943 2.07807 12.3205 1.66472 12.465 1.28635C12.6096 0.907971 12.8656 0.582394 13.1992 0.352698C13.5328 0.123001 13.9283 1.02538e-05 14.3333 0ZM16 16H12C11.6602 16.0004 11.3333 16.1305 11.0862 16.3638C10.8391 16.5971 10.6904 16.9159 10.6704 17.2552C10.6505 17.5944 10.7609 17.9285 10.979 18.1891C11.1971 18.4497 11.5065 18.6172 11.844 18.6573L12 18.6667H16C16.3536 18.6667 16.6928 18.5262 16.9428 18.2761C17.1929 18.0261 17.3333 17.687 17.3333 17.3333C17.3333 16.9797 17.1929 16.6406 16.9428 16.3905C16.6928 16.1405 16.3536 16 16 16ZM10.3333 10.6667C9.8029 10.6667 9.29419 10.8774 8.91912 11.2525C8.54405 11.6275 8.33333 12.1362 8.33333 12.6667C8.33333 13.1971 8.54405 13.7058 8.91912 14.0809C9.29419 14.456 9.8029 14.6667 10.3333 14.6667C10.8638 14.6667 11.3725 14.456 11.7475 14.0809C12.1226 13.7058 12.3333 13.1971 12.3333 12.6667C12.3333 12.1362 12.1226 11.6275 11.7475 11.2525C11.3725 10.8774 10.8638 10.6667 10.3333 10.6667ZM18.3333 10.6667C17.8029 10.6667 17.2942 10.8774 16.9191 11.2525C16.544 11.6275 16.3333 12.1362 16.3333 12.6667C16.3333 13.1971 16.544 13.7058 16.9191 14.0809C17.2942 14.456 17.8029 14.6667 18.3333 14.6667C18.8638 14.6667 19.3725 14.456 19.7475 14.0809C20.1226 13.7058 20.3333 13.1971 20.3333 12.6667C20.3333 12.1362 20.1226 11.6275 19.7475 11.2525C19.3725 10.8774 18.8638 10.6667 18.3333 10.6667ZM1.33333 10.6667C1.65991 10.6667 1.97512 10.7866 2.21916 11.0036C2.46321 11.2206 2.61912 11.5197 2.65733 11.844L2.66667 12V17.3333C2.66629 17.6732 2.53616 18 2.30287 18.2472C2.06958 18.4943 1.75073 18.643 1.41147 18.6629C1.07222 18.6828 0.738161 18.5724 0.477557 18.3543C0.216953 18.1362 0.0494716 17.8268 0.00933337 17.4893L0 17.3333V12C8.28802e-09 11.6464 0.140476 11.3072 0.390524 11.0572C0.640573 10.8071 0.979711 10.6667 1.33333 10.6667ZM26.6667 10.6667C26.9932 10.6667 27.3084 10.7866 27.5525 11.0036C27.7965 11.2206 27.9525 11.5197 27.9907 11.844L28 12V17.3333C27.9996 17.6732 27.8695 18 27.6362 18.2472C27.4029 18.4943 27.0841 18.643 26.7448 18.6629C26.4056 18.6828 26.0715 18.5724 25.8109 18.3543C25.5503 18.1362 25.3828 17.8268 25.3427 17.4893L25.3333 17.3333V12C25.3333 11.6464 25.4738 11.3072 25.7239 11.0572C25.9739 10.8071 26.313 10.6667 26.6667 10.6667Z"/>
</svg>
