<svg width="11" height="19" viewBox="0 0 11 19" fill="none" xmlns="http://www.w3.org/2000/svg">
<path id="Vector" fill-rule="evenodd" clip-rule="evenodd" d="M0.41476 10.4497C0.149176 10.184 -2.11444e-05 9.82376 -2.11116e-05 9.44811C-2.10787e-05 9.07246 0.149177 8.71219 0.414761 8.44653L8.42884 0.432441C8.55953 0.297136 8.71585 0.189211 8.88869 0.114963C9.06153 0.0407179 9.24742 0.00163827 9.43553 3.68977e-06C9.62363 -0.00163089 9.81018 0.0342139 9.98428 0.105446C10.1584 0.176676 10.3166 0.28187 10.4496 0.414885C10.5826 0.547899 10.6878 0.70607 10.759 0.880175C10.8302 1.05428 10.8661 1.24082 10.8644 1.42893C10.8628 1.61703 10.8237 1.80293 10.7495 1.97577C10.6752 2.14861 10.5673 2.30493 10.432 2.43561L3.41951 9.44811L10.432 16.4606C10.6901 16.7278 10.8329 17.0856 10.8296 17.4571C10.8264 17.8285 10.6774 18.1839 10.4148 18.4465C10.1521 18.7092 9.79677 18.8582 9.42533 18.8614C9.05388 18.8646 8.69603 18.7218 8.42884 18.4638L0.41476 10.4497Z" fill="white"/>
</svg>
