<svg width="25" height="19" viewBox="0 0 25 19" fill="none" xmlns="http://www.w3.org/2000/svg">
<g id="Group 35122">
<path id="Exclude" fill-rule="evenodd" clip-rule="evenodd" d="M12.1094 19C17.3561 19 21.6094 14.7467 21.6094 9.5C21.6094 9.22445 21.5976 8.95165 21.5747 8.68205C22.9073 7.32029 23.7966 6.01313 24.0946 4.89414C24.37 3.87656 24.1327 3.15195 23.8856 2.7291C23.2775 1.68146 21.682 0.698498 17.5887 1.73845C16.0404 0.643416 14.15 0 12.1094 0C6.86267 0 2.60938 4.25329 2.60938 9.5C2.60938 9.77412 2.62099 10.0455 2.64374 10.3138C-0.334655 13.3426 -0.275514 15.2162 0.3358 16.2701C0.917832 17.274 2.07994 17.7027 3.58189 17.7027C4.493 17.7027 5.53005 17.5449 6.63557 17.2655C8.18284 18.3581 10.0711 19 12.1094 19ZM3.31158 13.0911C2.95653 12.2222 2.72648 11.289 2.64374 10.3138C2.68187 10.275 2.7205 10.236 2.75963 10.1969C2.7427 9.9664 2.73424 9.73398 2.73424 9.49961C2.73288 7.79043 3.1991 6.11344 4.08241 4.6502C4.96572 3.18696 6.23246 1.99322 7.74551 1.19823C9.25854 0.403239 10.9602 0.0372808 12.6663 0.139977C14.3724 0.242674 16.0179 0.810112 17.4247 1.78086C17.4798 1.76636 17.5345 1.75223 17.5887 1.73845C18.3701 2.29112 19.0644 2.95882 19.6469 3.71691C19.5988 3.72344 19.5498 3.73042 19.4999 3.73789C20.0455 4.43497 20.4894 5.20602 20.8182 6.02793C20.8491 5.98952 20.8794 5.95137 20.9091 5.9135C21.2625 6.77984 21.4918 7.71007 21.5747 8.68205C21.5361 8.72145 21.4972 8.7609 21.4579 8.80039C21.4754 9.03183 21.4842 9.26426 21.4842 9.49961C21.4857 11.2083 21.02 12.8848 20.1373 14.3478C19.2547 15.8108 17.9887 17.0046 16.4765 17.8C14.9643 18.5953 13.2633 18.9621 11.5577 18.8604C9.85207 18.7587 8.20672 18.1926 6.79967 17.2232C6.74481 17.2376 6.6901 17.2517 6.63557 17.2655C5.85182 16.712 5.15557 16.0429 4.57167 15.2829C4.62066 15.2762 4.67061 15.269 4.72154 15.2613C4.17651 14.5651 3.73296 13.795 3.40416 12.9742C3.37239 13.0137 3.34154 13.0527 3.31158 13.0911ZM3.31158 13.0911C3.63407 13.8804 4.05968 14.6166 4.57167 15.2829C3.00235 15.4975 2.42467 15.2004 2.36217 15.0943C2.30438 14.993 2.34308 14.333 3.31158 13.0911ZM20.9091 5.9135C20.5863 5.12242 20.16 4.38461 19.6469 3.71691C21.0914 3.52132 21.7656 3.74328 21.8583 3.90488C21.8749 3.9332 21.8954 4.0582 21.8329 4.28965C21.715 4.72995 21.4016 5.28407 20.9091 5.9135ZM16.4915 4.00566C15.2466 3.01243 13.7018 2.47051 12.1092 2.46836C10.7002 2.47015 9.32427 2.89522 8.15977 3.68845C6.99526 4.48168 6.09593 5.60648 5.5784 6.91699C5.06087 8.22751 4.949 9.66328 5.25731 11.0381C5.56562 12.413 6.27989 13.6635 7.30748 14.6275C9.21568 14.0133 11.3456 13.0494 13.4686 11.8297C15.7225 10.5338 17.578 9.18027 18.9637 7.93711C18.6079 6.38478 17.7365 4.99889 16.4915 4.00566ZM9.90611 16.1754C10.6167 16.4109 11.3606 16.531 12.1092 16.5308C13.7192 16.5289 15.28 15.9754 16.5314 14.9626C17.7829 13.9497 18.6496 12.5387 18.9872 10.9645C17.6048 12.0293 16.1504 12.9974 14.6346 13.8619C13.1131 14.7401 11.5332 15.513 9.90611 16.1754Z" fill="white"/>
</g>
</svg>
