<svg width="25" height="25" viewBox="0 0 25 25" fill="none" xmlns="http://www.w3.org/2000/svg">
<g id="ph:planet-bold">
<path id="Vector" d="M24.2764 3.72947C23.6601 2.66794 22.0303 1.67283 17.8154 2.78122C16.4087 1.81048 14.7632 1.24304 13.0571 1.14034C11.351 1.03765 9.64929 1.40361 8.13625 2.1986C6.62321 2.99359 5.35646 4.18733 4.47316 5.65056C3.58985 7.1138 3.12363 8.79079 3.12498 10.5C3.12498 10.7343 3.13345 10.9668 3.15037 11.1972C0.0546713 14.2949 0.107406 16.2031 0.726547 17.2705C1.30858 18.2744 2.47069 18.7031 3.97264 18.7031C4.9287 18.7031 6.02342 18.5293 7.19041 18.2236C8.59747 19.193 10.2428 19.7591 11.9484 19.8608C13.6541 19.9624 15.355 19.5957 16.8672 18.8003C18.3795 18.005 19.6454 16.8112 20.5281 15.3482C21.4107 13.8852 21.8765 12.2086 21.875 10.5C21.875 10.2646 21.8662 10.0322 21.8486 9.80075C23.2461 8.39646 24.1787 7.04587 24.4853 5.89451C24.7607 4.87693 24.5234 4.15232 24.2764 3.72947ZM12.5 3.46872C14.0926 3.47088 15.6374 4.0128 16.8823 5.00603C18.1272 5.99926 18.9987 7.38515 19.3545 8.93747C17.9687 10.1806 16.1133 11.5342 13.8594 12.8301C11.7363 14.0498 9.60643 15.0136 7.69823 15.6279C6.67063 14.6639 5.95637 13.4134 5.64806 12.0385C5.33975 10.6636 5.45161 9.22787 5.96915 7.91736C6.48668 6.60685 7.38601 5.48205 8.55051 4.68882C9.71502 3.89558 11.091 3.47051 12.5 3.46872ZM2.75291 16.0947C2.69334 15.9902 2.73631 15.292 3.79491 13.9746C4.12371 14.7954 4.56725 15.5654 5.11229 16.2617C3.42967 16.5166 2.81737 16.2041 2.75291 16.0947ZM12.5 17.5312C11.7513 17.5313 11.0075 17.4113 10.2969 17.1758C11.924 16.5134 13.5039 15.7405 15.0254 14.8623C16.5412 13.9978 17.9955 13.0297 19.3779 11.9648C19.0404 13.539 18.1737 14.9501 16.9222 15.9629C15.6707 16.9758 14.11 17.5293 12.5 17.5312ZM22.2236 5.29001C22.0986 5.75681 21.7539 6.35154 21.209 7.02829C20.8801 6.20638 20.4363 5.43534 19.8906 4.73826C21.4365 4.50681 22.1533 4.73826 22.249 4.90525C22.2656 4.93357 22.2861 5.05857 22.2236 5.29001Z"/>
</g>
</svg>
