<svg width="19" height="19" viewBox="0 0 19 19" fill="none" xmlns="http://www.w3.org/2000/svg">
<g id="Group 35146">
<path id="Rectangle 1" d="M16.9191 3.25376L16.9192 3.25366L16.9191 3.25376ZM16.9191 3.25376C17.5858 3.92042 17.9191 4.25376 17.9191 4.66797C17.9191 5.08218 17.5858 5.41552 16.9191 6.08218L6.72505 16.2763C6.5304 16.4709 6.43307 16.5682 6.31478 16.6352C6.19649 16.7022 6.06296 16.7356 5.7959 16.8023L1.80845 17.7992C1.44742 17.8894 1.2669 17.9346 1.16682 17.8345C1.06673 17.7344 1.11186 17.5539 1.20211 17.1928L2.19898 13.2054C2.26574 12.9383 2.29912 12.8048 2.3661 12.6865C2.43307 12.5682 2.5304 12.4709 2.72505 12.2763L12.9191 2.08218C13.5858 1.41552 13.9191 1.08218 14.3333 1.08218C14.7475 1.08218 15.0809 1.41552 15.7475 2.08218L16.9191 3.25376ZM0.813261 18.188L1.16608 17.8352L0.813264 18.188C1.02267 18.3974 1.28373 18.401 1.43846 18.3858C1.57901 18.3721 1.74637 18.3302 1.90307 18.2909C1.91199 18.2887 1.92088 18.2865 1.92972 18.2843L5.91717 17.2874C5.9323 17.2836 5.94731 17.2799 5.96221 17.2762C6.18494 17.2207 6.3821 17.1717 6.56113 17.0703C6.74016 16.9689 6.88369 16.8251 7.04581 16.6626C7.05665 16.6518 7.06758 16.6408 7.0786 16.6298L17.2727 6.43574L17.296 6.41244C17.6094 6.09904 17.8795 5.82902 18.0666 5.5837C18.2672 5.32078 18.4191 5.02835 18.4191 4.66797C18.4191 4.30758 18.2672 4.01516 18.0666 3.75224C17.8794 3.50691 17.6094 3.23687 17.2959 2.92346L17.2727 2.90021L17.265 2.89253L17.265 2.89252L16.1011 1.72863L16.0778 1.70535C15.7644 1.39192 15.4944 1.12185 15.2491 0.934671C14.9861 0.734071 14.6937 0.582182 14.3333 0.582182C13.9729 0.582182 13.6805 0.734071 13.4176 0.934671C13.1723 1.12185 12.9022 1.39191 12.5888 1.70535L12.5656 1.72863L2.37149 11.9227C2.36047 11.9337 2.34952 11.9446 2.33866 11.9555C2.17619 12.1176 2.03236 12.2611 1.931 12.4402C1.82963 12.6192 1.78056 12.8164 1.72513 13.0391C1.72142 13.054 1.71769 13.069 1.71391 13.0841L0.717042 17.0716C0.714828 17.0804 0.712599 17.0893 0.710362 17.0983C0.671119 17.255 0.629208 17.4223 0.61546 17.5628C0.600323 17.7176 0.603851 17.9786 0.813261 18.188Z" stroke="white"/>
<path id="Vector 107" d="M11 2.66667L15 0L19 4L16.3333 8L11 2.66667Z" fill="white"/>
</g>
</svg>
