<svg width="20" height="20" viewBox="0 0 20 20" fill="none" stroke="none" stroke-width="2.2" xmlns="http://www.w3.org/2000/svg">
<g id="Group 35125">
<path id="Vector" d="M10.4342 1.2391L10.4342 1.23914L18.1531 6.76113L18.7932 5.86649L18.1532 6.76114C18.3846 6.92674 18.5729 7.14464 18.7026 7.39659C18.8324 7.64847 18.8999 7.9273 18.9 8.21005C18.9 8.2101 18.9 8.21015 18.9 8.2102V17.1148C18.9 18.0973 18.0999 18.9 17.1053 18.9H14.2579V15.8034C14.2579 13.4542 12.348 11.5559 10 11.5559C7.65197 11.5559 5.74211 13.4542 5.74211 15.8034V18.9H2.89474C1.90014 18.9 1.1 18.0973 1.1 17.1148V8.21036C1.1 8.21035 1.1 8.21033 1.1 8.21032C1.10002 7.9275 1.16759 7.6486 1.29732 7.39666C1.42707 7.14468 1.61534 6.92675 1.84684 6.76114L1.84685 6.76113L9.5658 1.23914L9.56585 1.2391C9.69203 1.14883 
9.84387 1.1 10 1.1C10.1561 1.1 10.308 1.14883 10.4342 1.2391Z"  stroke-width="2.2"/>
<line id="Line 20" x1="6" y1="18.9" x2="14" y2="18.9"  stroke-width="2.2"/>
</g>
</svg>
