<svg width="20" height="20" viewBox="0 0 20 20" fill="none" xmlns="http://www.w3.org/2000/svg">
<path id="Vector" d="M11.0742 0.344495L18.7932 5.86649C19.1665 6.13359 19.4707 6.48546 19.6806 6.89298C19.8904 7.30051 19.9999 7.75198 20 8.21005V17.1148C20 18.7082 18.7039 20 17.1053 20H13.1579V15.8034C13.1579 14.0652 11.7439 12.6559 10 12.6559C8.25605 12.6559 6.84211 14.0652 6.84211 15.8034V20H2.89474C1.29605 20 0 18.7082 0 17.1148V8.21032C1.98912e-05 7.7522 0.10949 7.30067 0.319352 6.8931C0.529214 6.48552 0.833434 6.13361 1.20684 5.86649L8.92579 0.344495C9.23889 0.120487 9.61459 0 10 0C10.3854 0 10.7611 0.120487 11.0742 0.344495Z" />
</svg>
