<svg width="30" height="30" viewBox="0 0 30 30" fill="none" xmlns="http://www.w3.org/2000/svg">
<g id="ph:heart-light">
<path id="Vector" d="M19.0455 6C17.1364 6 15.4764 6.86091 14.5 8.30364C13.5236 6.86091 11.8636 6 9.95455 6C8.50843 6.00168 7.12202 6.5769 6.09946 7.59946C5.0769 8.62202 4.50168 10.0084 4.5 11.4545C4.5 14.1091 6.15455 16.8718 9.41818 19.6645C10.9137 20.9389 12.5291 22.0653 14.2418 23.0282C14.3212 23.0708 14.4099 23.0932 14.5 23.0932C14.5901 23.0932 14.6788 23.0708 14.7582 23.0282C16.4709 22.0653 18.0863 20.9389 19.5818 19.6645C22.8455 16.8718 24.5 14.1091 24.5 11.4545C24.4983 10.0084 23.9231 8.62202 22.9005 7.59946C21.878 6.5769 20.4916 6.00168 19.0455 6ZM14.5 21.9191C13.0082 21.0582 5.59091 16.52 5.59091 11.4545C5.59211 10.2976 6.05224 9.1884 6.87032 8.37032C7.6884 7.55224 8.79761 7.09211 9.95455 7.09091C11.7982 7.09091 13.3464 8.07545 13.9955 9.66091C14.0365 9.76095 14.1065 9.84652 14.1963 9.90674C14.2861 9.96696 14.3918 9.99911 14.5 9.99911C14.6082 9.99911 14.7139 9.96696 14.8037 9.90674C14.8935 9.84652 14.9635 9.76095 15.0045 9.66091C15.6536 8.07545 17.2018 7.09091 19.0455 7.09091C20.2024 7.09211 21.3116 7.55224 22.1297 8.37032C22.9478 9.1884 23.4079 10.2976 23.4091 11.4545C23.4091 16.52 15.9918 21.0582 14.5 21.9191Z"/>
</g>
</svg>
