<svg width="20" height="21" viewBox="0 0 20 21" fill="none" xmlns="http://www.w3.org/2000/svg">
<g id="tabler:ruler-measure">
<path id="Vector" d="M11.3798 5.4013L10.0827 6.80353M9.27644 3.45565L7.3308 5.559M13.4831 7.34694L11.5375 9.45029M17.6898 11.2382L15.7442 13.3416M15.5865 9.29259L14.2894 10.6948M19.0044 12.4543C19.4398 12.857 19.4611 13.5428 19.0519 13.9852L15.3461 17.9914C14.9369 18.4338 14.2514 18.4659 13.816 18.0632L2.68583 7.76748C2.49988 7.59548 2.38988 7.35665 2.38002 7.10354C2.37016 6.85043 2.46125 6.60377 2.63326 6.41782L6.43181 2.31138C6.84104 1.86898 7.52646 1.83688 7.96185 2.23963L19.0044 12.4543Z" stroke="white" stroke-width="1.44939" stroke-linecap="round" stroke-linejoin="round"/>
</g>
</svg>
