<svg width="21" height="23" viewBox="0 0 21 23" fill="none" stroke="none" stroke-width="2.2" stroke-linejoin="round" xmlns="http://www.w3.org/2000/svg">
<g id="Group">
<path id="Vector" d="M2 19.5C2 18.4391 2.44777 17.4217 3.2448 16.6716C4.04183 15.9214 5.12283 15.5 6.25 15.5H14.75C15.8772 15.5 16.9582 15.9214 17.7552 16.6716C18.5522 17.4217 19 18.4391 19 19.5C19 20.0304 18.7761 20.5391 18.3776 20.9142C17.9791 21.2893 17.4386 21.5 16.875 21.5H4.125C3.56141 21.5 3.02091 21.2893 2.6224 20.9142C2.22388 20.5391 2 20.0304 2 19.5Z" />
<path id="Vector_2" d="M10.5 10.5C12.8472 10.5 14.75 8.59721 14.75 6.25C14.75 3.90279 12.8472 2 10.5 2C8.15279 2 6.25 3.90279 6.25 6.25C6.25 8.59721 8.15279 10.5 10.5 10.5Z" />
</g>
</svg>
