<svg width="20" height="22" viewBox="0 0 20 22" fill="none" xmlns="http://www.w3.org/2000/svg">
<g id="ion:search">
<path id="Vector" d="M17.2159 19.3561L13.4376 15.5779C12.2267 16.4875 10.7527 16.9785 9.23817 16.9769C5.36957 16.9769 2.22217 13.8295 2.22217 9.96088C2.22217 6.09229 5.36957 2.94489 9.23817 2.94489C13.1068 2.94489 16.2542 6.09229 16.2542 9.96089C16.2558 11.4754 15.7648 12.9494 14.8551 14.1604L18.6334 17.9386C18.8044 18.1299 18.8956 18.3793 18.8884 18.6357C18.8813 18.8922 18.7762 19.1361 18.5948 19.3175C18.4134 19.4989 18.1695 19.604 17.913 19.6112C17.6566 19.6183 17.4072 19.5271 17.2159 19.3561ZM9.23817 4.94946C8.247 4.94946 7.27809 5.24337 6.45397 5.79403C5.62984 6.3447 4.98752 7.12737 4.60821 8.04309C4.22891 8.95881 4.12967 9.96644 4.32303 10.9386C4.5164 11.9107 4.99369 12.8036 5.69455 13.5045C6.39541 14.2054 7.28836 14.6827 8.26049 14.876C9.23261 15.0694 10.2402 14.9701 11.156 14.5908C12.0717 14.2115 12.8544 13.5692 13.405 12.7451C13.9557 11.921 14.2496 10.9521 14.2496 9.96089C14.248 8.63226 13.7195 7.35851 12.78 6.41903C11.8405 5.47955 10.5668 4.95105 9.23817 4.94946Z" fill="white"/>
</g>
</svg>
