<svg width="20" height="20" viewBox="0 0 20 20" fill="none" xmlns="http://www.w3.org/2000/svg">
<path d="M9.99979 0C10.1855 9.91486e-05 10.3674 0.0518831 10.5253 0.149552C10.6832 0.247222 10.8108 0.386919 10.8938 0.553L19.8938 18.553C19.9781 18.7219 20.0128 18.9113 19.994 19.0991C19.9752 19.2869 19.9036 19.4656 19.7875 19.6145C19.6713 19.7633 19.5155 19.8763 19.3379 19.9403C19.1602 20.0042 18.9682 20.0166 18.7838 19.976L9.99979 18.024L1.21679 19.976C1.03236 20.0169 0.840125 20.0046 0.662348 19.9408C0.484571 19.8769 0.328522 19.764 0.212271 19.6151C0.09602 19.4662 0.0243214 19.2874 0.00547695 19.0994C-0.0133675 18.9115 0.0214131 18.722 0.105792 18.553L9.10579 0.553C9.18878 0.386919 9.31637 0.247222 9.47427 0.149552C9.63216 0.0518831 9.81413 9.91486e-05 9.99979 0ZM10.9998 16.198L17.1658 17.568L10.9998 5.236V16.198ZM8.99979 5.236L2.83379 17.568L8.99979 16.198V5.236Z" fill="#8C8C8C"/>
</svg>
