<svg width="21" height="21" viewBox="0 0 21 21" fill="none" xmlns="http://www.w3.org/2000/svg">
<g id="lets-icons:setting-alt-line">
<g id="Group">
<path id="Vector" d="M2.69693 12.2011C2.23405 11.3699 2.00305 10.9534 2.00305 10.4992C2.00305 10.0451 2.23405 9.6295 2.69693 8.79825L3.87643 6.6755L5.12418 4.59212C5.6133 3.77575 5.85743 3.36712 6.2503 3.13962C6.64405 2.913 7.11918 2.906 8.0703 2.89025L10.5002 2.85175L12.9283 2.89025C13.8803 2.906 14.3554 2.913 14.7483 3.1405C15.1421 3.368 15.3871 3.77575 15.8753 4.59212L17.1239 6.6755L18.3052 8.79825C18.7672 9.6295 18.9982 10.0451 18.9982 10.4992C18.9982 10.9534 18.7672 11.369 18.3043 12.2002L17.1239 14.323L15.8762 16.4064C15.3871 17.2227 15.1429 17.6314 14.7501 17.8589C14.3563 18.0855 13.8812 18.0925 12.9301 18.1082L10.5002 18.1467L8.07205 18.1082C7.12005 18.0925 6.64493 18.0855 6.25205 17.858C5.8583 17.6305 5.6133 17.2227 5.12505 16.4064L3.87643 14.323L2.69693 12.2011Z" stroke="white" stroke-width="1.75"/>
<path id="Vector_2" d="M10.5001 13.1241C11.9499 13.1241 13.1251 11.9488 13.1251 10.4991C13.1251 9.04934 11.9499 7.87408 10.5001 7.87408C9.05037 7.87408 7.87512 9.04934 7.87512 10.4991C7.87512 11.9488 9.05037 13.1241 10.5001 13.1241Z" stroke="white" stroke-width="1.75"/>
</g>
</g>
</svg>
